<svg id="Layer_1" data-name="Layer 1" xmlns="http://www.w3.org/2000/svg" width="18.1" height="18.7" viewBox="0 0 90.1 92.7">
  <rect width="90.1" height="92.72" rx="12" ry="12" fill="#7bcd40"/>
  <g>
    <path fill="#00" id="e" d="M549.6,377.6a33.7,33.7,0,0,0-8.5-20.1c-7.5-8.4-16.9-12-28-9.5-9.2,2-15.8,7.7-20.3,15.9-.7,1.3-.7,1.4-1.8.2a3.2,3.2,0,0,0-2.4-1.5h-14a1.3,1.3,0,0,0-1.3,1.9c.3.8,1,.8,1.7.8,3.6,0,7.2.1,10.8,0a4.4,4.4,0,0,1,4.2,1.9,2.1,2.1,0,0,1,.4,2.2,37,37,0,0,0-1.3,16.9,33.1,33.1,0,0,0,55.1,18.5,1.7,1.7,0,0,0,.2-2.5c-.8-1-1.7-1-2.8,0-7.5,6.6-16.2,8.7-25.9,7a29,29,0,0,1-23.4-26.9c0-1,.2-1.3,1.2-1.3h52.8C549.8,381.1,549.9,380.9,549.6,377.6Zm-4.8-.5H494.2c-1.7,0-1.8,0-1.5-1.7,1.9-9.8,6.9-17.3,15.9-21.8a24.6,24.6,0,0,1,28.1,4.7,30,30,0,0,1,9.1,17.7C546,376.9,545.8,377.1,544.8,377.1Z" transform="translate(-470 -337.5)"/>
    <path fill="#00" d="M500.2,410.4a4.7,4.7,0,0,0-5.3,3.9c-.3,3.1,1.3,5,4.5,5.3a4.4,4.4,0,0,0,4.8-4A4.7,4.7,0,0,0,500.2,410.4Z" transform="translate(-470 -337.5)"/>
    <path fill="#00" d="M543.6,411a4.6,4.6,0,0,0-4.7,4.5,4.5,4.5,0,0,0,4.6,4.8,4.5,4.5,0,0,0,4.7-4.6A4.7,4.7,0,0,0,543.6,411Z" transform="translate(-470 -337.5)"/>
  </g>
</svg>
