<svg id="Layer_1" data-name="Layer 1" xmlns="http://www.w3.org/2000/svg" width="324.9" height="91" viewBox="0 0 324.9 91">
  <title>logo</title>
  <g>
    <g id="e">
      <path d="M586.6,361.6a41.6,41.6,0,0,0-9.4-23.8c-8.3-9.9-18.6-14.2-31-11.3-10.2,2.4-17.4,9.2-22.4,18.9-.8,1.6-.8,1.6-2,.2s-1.4-1.8-2.6-1.8H503.7a1.6,1.6,0,0,0-1.4,2.3c.4.9,1.1,1,1.9,1,4,0,8,.1,11.9,0a4.7,4.7,0,0,1,4.6,2.2,2.6,2.6,0,0,1,.5,2.6,47.1,47.1,0,0,0-1.4,20.1c3.7,22.4,24.1,36.5,44.7,31.3a36.2,36.2,0,0,0,16.1-9.4,2.1,2.1,0,0,0,.3-3c-.9-1.1-1.9-1.1-3.1,0-8.3,7.8-17.9,10.4-28.6,8.3-14.3-2.8-25.3-16.4-25.9-31.9,0-1.2.2-1.5,1.3-1.5H583C586.7,365.7,586.9,365.5,586.6,361.6Zm-5.3-.6h-56c-1.9,0-2,0-1.6-2,2.1-11.6,7.6-20.6,17.6-25.9s22.6-3.2,31,5.5a36.5,36.5,0,0,1,10.1,21C582.5,360.7,582.3,361,581.2,361Z" transform="translate(-501.6 -325)" fill="#7bcd40" stroke="#7bcd40" stroke-miterlimit="10"/>
    </g>
    <path d="M531.9,400.5a5.3,5.3,0,0,0-5.9,4.6c-.3,3.7,1.4,6,5,6.4a5,5,0,0,0,5.3-4.7C536.6,403.6,534.6,400.7,531.9,400.5Z" transform="translate(-501.6 -325)" fill="#7bcd40" stroke="#7bcd40" stroke-miterlimit="10"/>
    <path d="M579.9,401.2a5.2,5.2,0,0,0-5.1,5.3c-.1,3.3,1.9,5.6,5.1,5.7s5.1-2.1,5.2-5.5A5.4,5.4,0,0,0,579.9,401.2Z" transform="translate(-501.6 -325)" fill="#7bcd40" stroke="#7bcd40" stroke-miterlimit="10"/>
  </g>
  <g>
    <path d="M612.7,387.3a7.3,7.3,0,0,0,4.7-1.6,5.4,5.4,0,0,0,2-4.5h2.4a7.2,7.2,0,0,1-2.7,5.9,9.6,9.6,0,0,1-6.5,2.4,9,9,0,0,1-7.6-3.6,14.9,14.9,0,0,1-2.7-9.2v-1a14.9,14.9,0,0,1,2.7-9.2,8.9,8.9,0,0,1,7.6-3.6,11.7,11.7,0,0,1,5.1,1.1,10.1,10.1,0,0,1,3.8,3v5.6h-2.3l-.4-4.5a7.7,7.7,0,0,0-2.7-2,8.5,8.5,0,0,0-3.6-.8,6.3,6.3,0,0,0-5.8,2.9,13.7,13.7,0,0,0-1.9,7.4v1a13.8,13.8,0,0,0,1.8,7.5A6.3,6.3,0,0,0,612.7,387.3Z" transform="translate(-501.6 -325)" fill="#7bcd40"/>
    <path d="M626.8,376a14.3,14.3,0,0,1,3-9.3,10.1,10.1,0,0,1,15.5.1,14.3,14.3,0,0,1,2.9,9.3v.8a14.3,14.3,0,0,1-2.9,9.3,10.1,10.1,0,0,1-15.5-.1,14.3,14.3,0,0,1-2.9-9.3Zm2.7.8a12.7,12.7,0,0,0,2.1,7.5,7.2,7.2,0,0,0,11.8,0,12.7,12.7,0,0,0,2.1-7.5v-.8a12.7,12.7,0,0,0-2.1-7.4,7.2,7.2,0,0,0-11.7,0,12.7,12.7,0,0,0-2.1,7.4Z" transform="translate(-501.6 -325)" fill="#7bcd40"/>
    <path d="M652,365.8v-2.1h6l.2,4.2a8.8,8.8,0,0,1,3.1-3.5,8.4,8.4,0,0,1,4.6-1.2,7.3,7.3,0,0,1,4.6,1.4,8,8,0,0,1,2.6,4.4,9.9,9.9,0,0,1,3.1-4.2,7.8,7.8,0,0,1,4.9-1.5,7.1,7.1,0,0,1,6,2.7q2.1,2.7,2.1,8.4V387l3.6.3v2.1h-10v-2.1l3.6-.3V374.4q0-4.7-1.5-6.7a5.3,5.3,0,0,0-4.4-2,5.8,5.8,0,0,0-4.8,2.1,10.4,10.4,0,0,0-2.1,5.4c0,.1,0,.2,0,.4s0,.3,0,.4v13l3.6.3v2.1h-9.9v-2.1l3.6-.3V374.4q0-4.6-1.6-6.6a5.3,5.3,0,0,0-4.4-2,6.4,6.4,0,0,0-4.5,1.5,8.2,8.2,0,0,0-2.3,4.1v15.6l3.6.3v2.1h-9.9v-2.1l3.6-.3V366.1Z" transform="translate(-501.6 -325)" fill="#7bcd40"/>
    <path d="M695.7,366v-2.1h6l.2,4.2a8.8,8.8,0,0,1,3.1-3.5,8.4,8.4,0,0,1,4.6-1.2,7.3,7.3,0,0,1,4.6,1.4,8,8,0,0,1,2.6,4.4A9.9,9.9,0,0,1,720,365a7.8,7.8,0,0,1,4.9-1.5,7.1,7.1,0,0,1,6,2.7q2.1,2.7,2.1,8.4v12.5l3.6.3v2.1h-10v-2.1l3.6-.3V374.6q0-4.7-1.5-6.7a5.3,5.3,0,0,0-4.4-2,5.8,5.8,0,0,0-4.8,2.1,10.5,10.5,0,0,0-2.1,5.4c0,.1,0,.2,0,.4s0,.3,0,.4v13l3.6.3v2.1h-9.9v-2.1l3.6-.3V374.5q0-4.6-1.6-6.6a5.3,5.3,0,0,0-4.4-2,6.4,6.4,0,0,0-4.5,1.5,8.2,8.2,0,0,0-2.3,4.1v15.6l3.6.3v2.1h-9.9v-2.1l3.6-.3V366.3Z" transform="translate(-501.6 -325)" fill="#7bcd40"/>
    <path d="M750.3,390.2a9.5,9.5,0,0,1-7.5-3.6,13.5,13.5,0,0,1-3-9v-1.3a13.9,13.9,0,0,1,3-9.1,9,9,0,0,1,7.2-3.6,8.7,8.7,0,0,1,7,3,11.8,11.8,0,0,1,2.5,8V377h-17v.7a11.8,11.8,0,0,0,2.1,7.2,6.8,6.8,0,0,0,5.7,2.9,11,11,0,0,0,4.2-.7,8.4,8.4,0,0,0,3-2.1l1.1,1.9a9.6,9.6,0,0,1-3.4,2.4A12.6,12.6,0,0,1,750.3,390.2ZM750,366a6.2,6.2,0,0,0-5,2.4,10.6,10.6,0,0,0-2.4,6h14.2v-.7a8.5,8.5,0,0,0-1.8-5.6A6.2,6.2,0,0,0,750,366Z" transform="translate(-501.6 -325)" fill="#7bcd40"/>
    <path d="M770.1,364.1l.3,4.3v.3a9,9,0,0,1,2.8-3.7,6.8,6.8,0,0,1,4.2-1.3h1l.8.2-.4,2.6h-2a5.8,5.8,0,0,0-4.1,1.5,8.4,8.4,0,0,0-2.3,4.1v15.3l3.6.3v2.1h-9.9v-2.1l3.6-.3V366.5l-3.6-.3v-2.1h6Z" transform="translate(-501.6 -325)" fill="#7bcd40"/>
    <path d="M792.5,387.9a7.3,7.3,0,0,0,4.7-1.6,5.4,5.4,0,0,0,2-4.5h2.4a7.2,7.2,0,0,1-2.7,5.9,9.6,9.6,0,0,1-6.5,2.4,9,9,0,0,1-7.6-3.6,14.9,14.9,0,0,1-2.7-9.2v-1a14.9,14.9,0,0,1,2.7-9.2,8.9,8.9,0,0,1,7.6-3.6,11.7,11.7,0,0,1,5.1,1.1,10.1,10.1,0,0,1,3.8,3v5.6h-2.3l-.4-4.5a7.7,7.7,0,0,0-2.7-2,8.5,8.5,0,0,0-3.6-.8,6.3,6.3,0,0,0-5.8,2.9,13.7,13.7,0,0,0-1.9,7.4v1a13.8,13.8,0,0,0,1.8,7.5A6.3,6.3,0,0,0,792.5,387.9Z" transform="translate(-501.6 -325)" fill="#7bcd40"/>
    <path d="M817.2,390.4a9.4,9.4,0,0,1-7.5-3.6,13.5,13.5,0,0,1-3-9v-1.3a13.9,13.9,0,0,1,3-9.1,9,9,0,0,1,7.2-3.6,8.7,8.7,0,0,1,7,3,11.8,11.8,0,0,1,2.5,8v2.4h-17v.7a11.8,11.8,0,0,0,2.1,7.2,6.8,6.8,0,0,0,5.7,2.9,11,11,0,0,0,4.2-.7,8.4,8.4,0,0,0,3-2.1l1.1,1.9a9.6,9.6,0,0,1-3.4,2.4A12.5,12.5,0,0,1,817.2,390.4Zm-.3-24.2a6.2,6.2,0,0,0-5,2.4,10.6,10.6,0,0,0-2.4,6h14.2v-.7a8.5,8.5,0,0,0-1.8-5.6A6.2,6.2,0,0,0,816.9,366.2Z" transform="translate(-501.6 -325)" fill="#7bcd40"/>
  </g>
  <g>
    <path d="M612.7,332a6,6,0,0,1,4.5,1.7,6.9,6.9,0,0,1,0,8.8,6,6,0,0,1-4.5,1.7h-4.2v7.2l2.1.2v1.3h-5.7v-1.3l2.1-.2V333.5l-2.1-.2V332h7.8Zm-4.2,10.7h4.2a4.3,4.3,0,0,0,3.4-1.3,4.8,4.8,0,0,0,1.2-3.3,4.9,4.9,0,0,0-1.1-3.3,4.3,4.3,0,0,0-3.4-1.3h-4.2Z" transform="translate(-501.6 -325)"/>
    <path d="M624.7,337.4l.2,2.6v.2a5.4,5.4,0,0,1,1.6-2.2,3.7,3.7,0,0,1,2.4-.8h1l-.2,1.6h-1.1a3.2,3.2,0,0,0-2.4.9,5.2,5.2,0,0,0-1.3,2.5v9.2l2.1.2v1.3h-5.7v-1.3l2.1-.2V338.8l-2.1-.2v-1.3h3.4Z" transform="translate(-501.6 -325)"/>
    <path d="M631.8,351.6l2.1-.2V338.8l-2.1-.2v-1.3h3.6v14l2.1.2v1.3h-5.7Zm3.6-18.6h-1.5v-2.4h1.5Z" transform="translate(-501.6 -325)"/>
    <path d="M639.7,351.6l2.1-.2V338.8l-2.1-.2v-1.3h3.4v2.7a5.3,5.3,0,0,1,1.8-2.2,4.6,4.6,0,0,1,2.7-.8,4,4,0,0,1,3.4,1.5,7.9,7.9,0,0,1,1.2,4.8v8l2.1.2v1.3h-5.7v-1.3l2.1-.2v-8a6.1,6.1,0,0,0-.9-3.8,3,3,0,0,0-2.5-1.1,3.7,3.7,0,0,0-2.6,1,5.4,5.4,0,0,0-1.5,2.5v9.3l2.1.2v1.3h-5.7Z" transform="translate(-501.6 -325)"/>
    <path d="M660.3,333.4v4h3v1.4h-3v10.1a3.6,3.6,0,0,0,.5,2.2,1.6,1.6,0,0,0,1.3.6h1.5l.2,1.3-.9.3h-1.1a2.7,2.7,0,0,1-2.3-1,5.3,5.3,0,0,1-.8-3.3V338.8h-2.4v-1.4h2.4v-4Z" transform="translate(-501.6 -325)"/>
  </g>
  <g>
    <path d="M681,411.7a2.7,2.7,0,0,0,2.3-1.1,6,6,0,0,0,.8-3.5v-.4a3.3,3.3,0,0,1-1.3,1.2,3.5,3.5,0,0,1-1.7.4,3.6,3.6,0,0,1-2.8-1.2,4.6,4.6,0,0,1-1.1-3.1,4.8,4.8,0,0,1,1.1-3.3,3.5,3.5,0,0,1,2.8-1.3,3.8,3.8,0,0,1,3,1.2,5.4,5.4,0,0,1,1.1,3.7V407a6.4,6.4,0,0,1-1.2,4.2,3.9,3.9,0,0,1-3.1,1.4h-1.4l-1.3-.4.2-.9,1.2.4Zm.2-4.3a3,3,0,0,0,1.9-.6,3.2,3.2,0,0,0,1.1-1.4v-1.2a4.7,4.7,0,0,0-.8-3,2.6,2.6,0,0,0-2.2-1,2.5,2.5,0,0,0-2,1.1,4.2,4.2,0,0,0-.8,2.6,4,4,0,0,0,.8,2.5A2.4,2.4,0,0,0,681.1,407.5Z" transform="translate(-501.6 -325)" fill="#000"/>
    <path d="M687.2,411.6h1.4v-7.8H687v-.9h1.6v-1.2a2.9,2.9,0,0,1,3.2-3.2H693l1.2.4-.2.9-1-.3h-1.2a2.1,2.1,0,0,0-1.6.6,2.3,2.3,0,0,0-.5,1.6v1.2h5.5v8.6h1.4v.8h-3.9v-.8h1.4v-7.8h-4.4v7.8h1.4v.8h-3.9Z" transform="translate(-501.6 -325)" fill="#000"/>
    <path d="M697.8,399.5v-.8h2.5v12.8h1.4v.8h-3.9v-.8h1.4V399.6Z" transform="translate(-501.6 -325)" fill="#000"/>
    <path d="M707.6,412.6a3.8,3.8,0,0,1-3-1.3,4.8,4.8,0,0,1-1.2-3.3v-.5a5,5,0,0,1,1.2-3.4,3.6,3.6,0,0,1,2.8-1.3,3.5,3.5,0,0,1,2.8,1.1,4.2,4.2,0,0,1,1,3v.9h-6.7v.3a4.2,4.2,0,0,0,.9,2.7,2.7,2.7,0,0,0,2.2,1.1,4.6,4.6,0,0,0,1.7-.3,3.3,3.3,0,0,0,1.2-.8l.4.7a3.8,3.8,0,0,1-1.4.9A5.2,5.2,0,0,1,707.6,412.6Zm-.1-9a2.5,2.5,0,0,0-2,.9,3.8,3.8,0,0,0-.9,2.2h5.6v-.3a3,3,0,0,0-.7-2.1A2.5,2.5,0,0,0,707.4,403.6Z" transform="translate(-501.6 -325)" fill="#000"/>
    <path d="M720.3,403.7h-1.2l1.5,5.5.4,1.7h.1l.4-1.7,2-6.4h.9l2,6.4.5,1.7h.1l.4-1.7,1.5-5.5h-1.2v-.8h3.2v.8h-.9l-2.5,8.7h-.9l-2.1-6.5-.4-1.6h-.1l-.4,1.6-2.1,6.5h-.9l-2.5-8.7h-.9v-.8h3.2Z" transform="translate(-501.6 -325)" fill="#000"/>
    <path d="M736.5,412.6a3.8,3.8,0,0,1-3-1.3,4.8,4.8,0,0,1-1.2-3.3v-.5a5,5,0,0,1,1.2-3.4,3.6,3.6,0,0,1,2.8-1.3,3.5,3.5,0,0,1,2.8,1.1,4.2,4.2,0,0,1,1,3v.9h-6.7v.3a4.2,4.2,0,0,0,.9,2.7,2.7,2.7,0,0,0,2.2,1.1,4.6,4.6,0,0,0,1.7-.3,3.3,3.3,0,0,0,1.2-.8l.4.7a3.8,3.8,0,0,1-1.4.9A5.2,5.2,0,0,1,736.5,412.6Zm-.1-9a2.5,2.5,0,0,0-2,.9,3.8,3.8,0,0,0-.9,2.2H739v-.3a3,3,0,0,0-.7-2.1A2.5,2.5,0,0,0,736.3,403.6Z" transform="translate(-501.6 -325)" fill="#000"/>
    <path d="M750.1,407.9a5.5,5.5,0,0,1-1,3.4,3.2,3.2,0,0,1-2.7,1.3,3.7,3.7,0,0,1-1.8-.4,3.2,3.2,0,0,1-1.2-1.2v1.4h-.9V399.6H741v-.8h2.5v5.7a3.3,3.3,0,0,1,3-1.7,3.1,3.1,0,0,1,2.7,1.4,6.2,6.2,0,0,1,1,3.6Zm-1.1-.2a5.6,5.6,0,0,0-.7-3,2.3,2.3,0,0,0-2.1-1.1,2.7,2.7,0,0,0-1.8.5,3.2,3.2,0,0,0-1,1.4v4.3a2.8,2.8,0,0,0,2.8,1.8,2.3,2.3,0,0,0,2.1-1,4.8,4.8,0,0,0,.7-2.7Z" transform="translate(-501.6 -325)" fill="#000"/>
    <path d="M756.6,407.4h-4.2v-.9h4.2Z" transform="translate(-501.6 -325)" fill="#000"/>
    <path d="M761.3,400.5v2.4h2.1v.9h-2.1V410a2,2,0,0,0,.3,1.3,1.1,1.1,0,0,0,.9.4h1.1l.2.8-.6.2h-.8a2,2,0,0,1-1.6-.6,3,3,0,0,1-.6-2v-6.2h-1.6v-.9h1.6v-2.4Z" transform="translate(-501.6 -325)" fill="#000"/>
    <path d="M765.2,407.5a5.1,5.1,0,0,1,1.2-3.4,4.1,4.1,0,0,1,6.1,0,5.1,5.1,0,0,1,1.2,3.4v.3a5.1,5.1,0,0,1-1.1,3.4,4.2,4.2,0,0,1-6.1,0,5.1,5.1,0,0,1-1.2-3.4Zm1.1.3a4.5,4.5,0,0,0,.8,2.8,2.9,2.9,0,0,0,4.6,0,4.5,4.5,0,0,0,.8-2.8v-.3a4.5,4.5,0,0,0-.8-2.8,2.9,2.9,0,0,0-4.6,0,4.5,4.5,0,0,0-.8,2.8Z" transform="translate(-501.6 -325)" fill="#000"/>
    <path d="M780,407.4h-4.2v-.9H780Z" transform="translate(-501.6 -325)" fill="#000"/>
    <path d="M782,403.7v-.8h2.3v1.5a3.4,3.4,0,0,1,1.2-1.2,3.5,3.5,0,0,1,1.8-.4,3.1,3.1,0,0,1,2.7,1.4,6.2,6.2,0,0,1,1,3.6v.2a5.5,5.5,0,0,1-1,3.4,3.2,3.2,0,0,1-2.7,1.3,3.8,3.8,0,0,1-1.8-.4,3.2,3.2,0,0,1-1.2-1.1v4h1.4v.8H782v-.8h1.4V403.8Zm8,4.1a5.5,5.5,0,0,0-.7-3,2.3,2.3,0,0,0-2.1-1.1,2.8,2.8,0,0,0-1.7.5,3.1,3.1,0,0,0-1,1.3V410a2.9,2.9,0,0,0,1,1.2,3,3,0,0,0,1.7.4,2.4,2.4,0,0,0,2.1-1,4.8,4.8,0,0,0,.7-2.8Z" transform="translate(-501.6 -325)" fill="#000"/>
    <path d="M795,402.9v1.6h0a3.4,3.4,0,0,1,1.1-1.4,2.8,2.8,0,0,1,1.7-.5h.7v1h-.8a2.4,2.4,0,0,0-1.6.6,3.1,3.1,0,0,0-.9,1.5v5.7h1.4v.8h-3.9v-.8h1.4v-7.7h-1.4v-.8H795Z" transform="translate(-501.6 -325)" fill="#000"/>
    <path d="M799.9,411.6h1.4v-7.7h-1.4v-.8h2.5v8.6h1.4v.8h-3.9Zm2.5-11.5h-1v-1.5h1Z" transform="translate(-501.6 -325)" fill="#000"/>
    <path d="M805.4,411.6h1.4v-7.7h-1.4v-.8h2.4v1.7a3.4,3.4,0,0,1,1.2-1.4,3.4,3.4,0,0,1,1.8-.5,2.9,2.9,0,0,1,2.4.9,4.5,4.5,0,0,1,.8,2.9v4.9h1.4v.8h-3.9v-.8h1.4v-4.9a3.4,3.4,0,0,0-.6-2.3,2.2,2.2,0,0,0-1.7-.7,2.7,2.7,0,0,0-1.8.6,3.3,3.3,0,0,0-1,1.6v5.7h1.4v.8h-3.9Z" transform="translate(-501.6 -325)" fill="#000"/>
    <path d="M819.6,400.5v2.4h2.1v.9h-2.1V410a2,2,0,0,0,.3,1.3,1.1,1.1,0,0,0,.9.4h1.1l.2.8-.6.2h-.8a2,2,0,0,1-1.6-.6,3,3,0,0,1-.6-2v-6.2h-1.6v-.9h1.6v-2.4Z" transform="translate(-501.6 -325)" fill="#000"/>
  </g>
</svg>
