<?xml version="1.0" encoding="iso-8859-1"?>
<!-- Generator: Adobe Illustrator 19.0.0, SVG Export Plug-In . SVG Version: 6.00 Build 0)  -->
<svg version="1.1" id="Capa_1" xmlns="http://www.w3.org/2000/svg" xmlns:xlink="http://www.w3.org/1999/xlink" x="0px" y="0px"
	 viewBox="0 0 480 480" style="enable-background:new 0 0 480 480;" xml:space="preserve">
<g>
	<g>
		<g>
			<path d="M472,111.999H355.312L245.656,2.343c-3.124-3.123-8.188-3.123-11.312,0L124.688,111.999H8c-4.418,0-8,3.582-8,8v352
				c0,4.418,3.582,8,8,8h464c4.418,0,8-3.582,8-8v-352C480,115.581,476.418,111.999,472,111.999z M240,19.311l92.688,92.688H147.312
				L240,19.311z M464,463.999H16v-336h448V463.999z"/>
			<path d="M48.544,426.711c0.088,0.232,0.16,0.448,0.264,0.672c0.056,0.166,0.12,0.329,0.192,0.488
				c0.357,0.642,0.801,1.232,1.32,1.752c0.056,0.056,0.128,0.088,0.184,0.144c0.611,0.569,1.308,1.039,2.064,1.392
				c0.219,0.105,0.443,0.198,0.672,0.28c0.879,0.351,1.814,0.541,2.76,0.56h368c0.946-0.019,1.881-0.209,2.76-0.56
				c0.235-0.086,0.464-0.184,0.688-0.296c0.712-0.339,1.37-0.781,1.952-1.312c0.096-0.088,0.216-0.152,0.304-0.24
				c0.535-0.541,0.99-1.155,1.352-1.824c0.064-0.128,0.088-0.272,0.144-0.4c0.1-0.23,0.188-0.465,0.264-0.704
				c0.266-0.733,0.419-1.501,0.456-2.28c0-0.136,0.08-0.248,0.08-0.384v-256c0-4.418-3.582-8-8-8H56c-4.418,0-8,3.582-8,8v256
				c0,0.088,0.048,0.16,0.048,0.256C48.086,425.094,48.254,425.923,48.544,426.711z M70.44,415.999L136,311.095l47.2,75.56
				l-19.496,29.344H70.44z M182.904,415.999l112.64-169.6l113.48,169.6H182.904z M64,175.999h352v221.664L302.168,227.551
				c-1.484-2.219-3.978-3.552-6.648-3.552c-2.673,0.004-5.167,1.343-6.648,3.568L192.92,371.999l-50.136-80.24
				c-2.327-3.756-7.259-4.913-11.014-2.586c-1.05,0.651-1.935,1.536-2.586,2.586L64,396.103V175.999z"/>
			<path d="M192,271.999c17.673,0,32-14.327,32-32s-14.327-32-32-32s-32,14.327-32,32S174.327,271.999,192,271.999z M192,223.999
				c8.837,0,16,7.163,16,16s-7.163,16-16,16s-16-7.163-16-16S183.163,223.999,192,223.999z"/>
		</g>
	</g>
</g>
<g>
</g>
<g>
</g>
<g>
</g>
<g>
</g>
<g>
</g>
<g>
</g>
<g>
</g>
<g>
</g>
<g>
</g>
<g>
</g>
<g>
</g>
<g>
</g>
<g>
</g>
<g>
</g>
<g>
</g>
</svg>
