<?xml version="1.0" encoding="utf-8"?>
<!-- Generator: Adobe Illustrator 21.1.0, SVG Export Plug-In . SVG Version: 6.00 Build 0)  -->
<svg version="1.1" id="Capa_1" xmlns="http://www.w3.org/2000/svg" xmlns:xlink="http://www.w3.org/1999/xlink" x="0px" y="0px"
	 viewBox="0 0 191.1 191.1" style="enable-background:new 0 0 191.1 191.1;" xml:space="preserve">
<g>
	<g>
		<path d="M88.7,126.3v61.4c0,1.9,1.5,3.4,3.4,3.4h95.6c1.9,0,3.4-1.5,3.4-3.4v-61.4c0-1.9-1.5-3.4-3.4-3.4H92.2
			C90.3,122.9,88.7,124.4,88.7,126.3z M184.3,129.7v54.6H95.6v-54.6H184.3z"/>
	</g>
</g>
<g>
	<g>
		<path d="M0,126.3v61.4c0,1.9,1.5,3.4,3.4,3.4h88.7c1.9,0,3.4-1.5,3.4-3.4v-61.4c0-1.9-1.5-3.4-3.4-3.4H3.4
			C1.5,122.9,0,124.4,0,126.3z M88.7,129.7v54.6H6.8v-54.6H88.7z"/>
	</g>
</g>
<g>
	<g>
		<path d="M58,64.9v61.4c0,1.9,1.5,3.4,3.4,3.4h126.3c1.9,0,3.4-1.5,3.4-3.4V64.9c0-1.9-1.5-3.4-3.4-3.4H61.4
			C59.6,61.4,58,63,58,64.9z M184.3,68.3v54.6H64.9V68.3H184.3z"/>
	</g>
</g>
<g>
	<g>
		<path d="M0,64.9v61.4c0,1.9,1.5,3.4,3.4,3.4h58c1.9,0,3.4-1.5,3.4-3.4V64.9c0-1.9-1.5-3.4-3.4-3.4h-58C1.5,61.4,0,63,0,64.9z
			 M58,68.3v54.6H6.8V68.3H58z"/>
	</g>
</g>
<g>
	<g>
		<path d="M139.9,3.4v61.4c0,1.9,1.5,3.4,3.4,3.4h44.4c1.9,0,3.4-1.5,3.4-3.4V3.4c0-1.9-1.5-3.4-3.4-3.4h-44.4
			C141.5,0,139.9,1.5,139.9,3.4z M184.3,6.8v54.6h-37.5V6.8H184.3z"/>
	</g>
</g>
<g>
	<g>
		<path d="M0,3.4v61.4c0,1.9,1.5,3.4,3.4,3.4h139.9c1.9,0,3.4-1.5,3.4-3.4V3.4c0-1.9-1.5-3.4-3.4-3.4H3.4C1.5,0,0,1.5,0,3.4z
			 M139.9,6.8v54.6H6.8V6.8H139.9z"/>
	</g>
</g>
</svg>
